<?xml version="1.0" encoding="UTF-8" standalone="no"?>
        <svg 
    viewBox="3.1494140625 -85.693359375 449.70703125 56.8359375"
    width="446.5576171875"
    height="142.529296875"
   xmlns="http://www.w3.org/2000/svg"
   xmlns:svg="http://www.w3.org/2000/svg">
   <path d="M13.77-32.52L13.77-32.52Q15.45-32.52 16.30-32.92Q17.14-33.33 18.31-35.67L18.31-35.67Q19.19-37.43 20.00-39.11Q20.80-40.80 22.16-44.24Q23.51-47.68 26.11-54.57Q28.71-61.45 33.14-73.43Q37.57-85.40 44.53-104.22L44.53-104.22L46.80-103.78Q45.56-98.22 44.09-91.15Q42.63-84.08 41.16-76.61Q39.70-69.14 38.34-62.26Q36.99-55.37 36.04-50.02Q35.08-44.68 34.64-41.97L34.64-41.97Q33.98-38.09 33.51-34.09Q33.03-30.10 33.18-27.17L33.18-27.17Q33.25-23.80 34.39-20.98Q35.52-18.16 36.88-15.16Q38.23-12.16 39.22-8.39Q40.21-4.61 40.06 0.73L40.06 0.73Q39.92 6.81 35.89 10.62Q31.86 14.43 25.63 14.43L25.63 14.43Q22.85 14.43 19.92 12.82Q16.99 11.21 15.89 6.59L15.89 6.59Q17.50-1.25 17.87-8.57Q18.24-15.89 17.50-20.98Q16.77-26.07 15.01-27.32L15.01-27.32Q12.08-29.37 7.18-29.88L7.18-29.88L7.18-32.52Q7.18-32.52 8.50-32.52Q9.81-32.52 11.39-32.52Q12.96-32.52 13.77-32.52ZM3.15-91.04L4.32-91.77Q15.09-90.38 21.09-87.16Q27.10-83.94 29.26-79.98Q31.42-76.03 30.65-72.36Q29.88-68.70 27.03-66.36Q24.17-64.01 20.14-63.98Q16.11-63.94 11.87-67.38L11.87-67.38Q11.43-73.68 8.79-80.05Q6.15-86.43 3.15-91.04L3.15-91.04ZM11.28-124.95L12.30-125.68Q23.88-124.88 30.54-121.84Q37.21-118.80 39.84-114.77Q42.48-110.74 41.97-106.86Q41.46-102.98 38.67-100.31Q35.89-97.63 31.68-97.30Q27.47-96.97 22.78-100.20L22.78-100.20Q21.46-106.86 18.05-113.49Q14.65-120.12 11.28-124.95L11.28-124.95ZM96.75-73.97L118.07-72.14Q117.85-70.68 116.71-69.62Q115.58-68.55 113.09-68.26L113.09-68.26L113.09-13.04Q113.09-11.50 113.75-10.84Q114.40-10.18 116.38-10.18L116.38-10.18L122.83-10.18Q124.51-10.18 125.94-10.18Q127.37-10.18 128.25-10.18L128.25-10.18Q129.35-10.33 130.04-10.73Q130.74-11.13 131.54-12.45L131.54-12.45Q132.79-14.72 134.80-20.91Q136.82-27.10 139.23-34.50L139.23-34.50L140.70-34.50L141.14-11.13Q144.73-9.30 145.86-7.36Q147.00-5.42 147.00-2.71L147.00-2.71Q147.00 3.52 140.92 6.63Q134.84 9.74 120.26 9.74L120.26 9.74L110.08 9.74Q102.61 9.74 98.77 8.24Q94.92 6.74 93.60 3.04Q92.29-0.66 92.29-7.32L92.29-7.32L92.29-46.07Q88.99-33.91 82.84-23.14Q76.68-12.38 66.43-3.04Q56.18 6.30 40.65 14.14L40.65 14.14L39.18 12.16Q51.42 1.17 58.81-10.88Q66.21-22.92 69.98-36.22Q73.75-49.51 75.11-64.05Q76.46-78.59 76.68-94.48L76.68-94.48L62.84-94.48Q65.41-85.18 64.27-79.58Q63.13-73.97 59.95-71.59Q56.76-69.21 53.06-69.58Q49.37-69.95 46.73-72.51Q44.09-75.07 44.06-79.36Q44.02-83.64 48.27-89.14L48.27-89.14Q51.71-91.55 53.80-96.28Q55.88-101.00 56.25-107.89L56.25-107.89L57.71-107.89Q58.89-105.40 59.84-103.13Q60.79-100.85 61.52-98.73L61.52-98.73L76.68-98.73L76.68-127.81L103.78-125.39Q103.49-123.63 102.21-122.57Q100.93-121.51 98.07-121.07L98.07-121.07L97.78-98.73L121.36-98.73L131.25-108.47L147.88-92.43Q147.00-91.41 145.72-91.04Q144.43-90.67 142.02-90.45L142.02-90.45Q139.45-87.74 135.83-84.23Q132.20-80.71 128.47-77.31Q124.73-73.90 121.66-71.41L121.66-71.41L120.26-72.29L122.68-94.48L97.78-94.48Q97.56-89.21 97.38-84.05Q97.19-78.88 96.75-73.97L96.75-73.97ZM208.37-58.67L209.40-59.55Q222.66-59.03 230.86-55.96Q239.06-52.88 243.05-48.52Q247.05-44.17 247.60-39.70Q248.14-35.23 246.02-31.86Q243.90-28.49 239.79-27.43Q235.69-26.37 230.57-28.93L230.57-28.93Q228.30-34.20 224.60-39.62Q220.90-45.04 216.61-49.99Q212.33-54.93 208.37-58.67L208.37-58.67ZM257.89-44.82L259.06-45.78Q273.34-42.77 281.80-37.54Q290.26-32.30 293.92-26.33Q297.58-20.36 297.44-14.90Q297.29-9.45 294.40-5.86Q291.50-2.27 286.82-1.83Q282.13-1.39 276.78-5.57L276.78-5.57Q275.54-16.04 270.23-26.62Q264.92-37.21 257.89-44.82L257.89-44.82ZM193.07-7.76L193.07-46.51L219.43-44.53Q219.21-41.31 214.67-40.65L214.67-40.65L214.67-12.45Q214.67-10.84 215.63-10.29Q216.58-9.74 220.02-9.74L220.02-9.74L235.47-9.74Q238.84-9.74 242.03-9.78Q245.21-9.81 246.90-9.89L246.90-9.89Q250.05-9.89 251.73-12.01L251.73-12.01Q253.27-13.92 255.36-18.27Q257.45-22.63 260.23-29.37L260.23-29.37L261.62-29.37L262.06-11.43Q266.53-9.74 267.96-7.76Q269.38-5.79 269.38-2.86L269.38-2.86Q269.38 1.68 266.20 4.36Q263.01 7.03 255.07 8.24Q247.12 9.45 232.98 9.45L232.98 9.45L215.84 9.45Q206.69 9.45 201.75 8.06Q196.80 6.67 194.93 2.97Q193.07-0.73 193.07-7.76L193.07-7.76ZM178.20-44.24L178.20-44.24L179.88-44.24Q184.72-33.40 184.83-24.90Q184.94-16.41 181.86-10.69Q178.78-4.98 174.17-2.42L174.17-2.42Q169.19 0.44 163.95-1.17Q158.72-2.78 156.88-8.13L156.88-8.13Q155.42-13.04 157.84-16.77Q160.25-20.51 164.58-22.49L164.58-22.49Q167.87-24.02 171.02-27.17Q174.17-30.32 176.22-34.72Q178.27-39.11 178.20-44.24ZM214.23-99.32L214.23-127.66L242.58-125.54Q242.36-123.78 241.11-122.53Q239.87-121.29 236.43-120.78L236.43-120.78L236.43-99.32L263.96-99.32L274.80-113.82Q274.80-113.82 276.82-112.24Q278.83-110.67 281.95-108.14Q285.06-105.62 288.46-102.80Q291.87-99.98 294.58-97.49L294.58-97.49Q293.92-95.07 290.26-95.07L290.26-95.07L236.43-95.07L236.43-68.55L258.76-68.55L269.97-83.13Q269.97-83.13 272.02-81.52Q274.07-79.91 277.22-77.38Q280.37-74.85 283.81-72.03Q287.26-69.21 290.11-66.72L290.11-66.72Q289.45-64.38 285.72-64.38L285.72-64.38L169.19-64.38L168.02-68.55L214.23-68.55L214.23-95.07L161.72-95.07L160.47-99.32L214.23-99.32ZM366.14-127.22L367.38-127.95Q377.56-126.05 383.09-122.61Q388.62-119.17 390.45-115.21Q392.29-111.25 391.33-107.78Q390.38-104.30 387.49-102.14Q384.59-99.98 380.71-100.16Q376.83-100.34 372.88-103.78L372.88-103.78Q372.88-110.01 370.86-116.31Q368.85-122.61 366.14-127.22L366.14-127.22ZM311.28-111.77L310.03-115.94L330.03-115.94L338.38-127.22Q338.38-127.22 341.02-125.06Q343.65-122.90 347.24-119.86Q350.83-116.82 353.69-114.18L353.69-114.18Q353.03-111.77 349.66-111.77L349.66-111.77L311.28-111.77ZM310.47-73.02L309.30-77.27L332.08-77.27L340.06-87.89Q340.06-87.89 342.59-85.84Q345.12-83.79 348.56-80.90Q352.00-78.00 354.79-75.44L354.79-75.44Q354.13-73.02 350.68-73.02L350.68-73.02L310.47-73.02ZM310.47-53.39L309.30-57.57L332.08-57.57L340.06-68.26Q340.06-68.26 342.59-66.21Q345.12-64.16 348.56-61.27Q352.00-58.37 354.79-55.81L354.79-55.81Q354.13-53.39 350.68-53.39L350.68-53.39L310.47-53.39ZM418.21-41.53L418.21-57.93L413.53-57.93L413.53-41.53L418.21-41.53ZM308.72 14.28L308.72-37.50L308.72-44.82L327.61-37.50L333.76-37.50L341.97-46.36L358.96-33.47Q357.64-31.64 353.69-30.76L353.69-30.76L353.69 2.56Q359.69-5.86 363.68-16.19Q367.68-26.51 369.87-37.35L369.87-37.35L360.57-37.35L359.25-41.53L372.73-41.53L372.73-57.93L354.79-57.93L353.54-62.11L372.73-62.11L372.73-77.71L361.23-77.71L359.84-81.88L372.73-81.88L372.73-95.21L360.13-95.21L360.28-95.07Q359.84-92.72 356.25-92.72L356.25-92.72L304.03-92.72L302.86-96.90L336.91-96.90L345.12-108.03Q345.12-108.03 346.88-106.64Q348.63-105.25 351.27-103.05Q353.91-100.85 356.54-98.58L356.54-98.58L356.25-99.46L399.32-99.46Q400.85-105.83 402.14-113.89Q403.42-121.95 404.08-128.10L404.08-128.10L429.93-121.80Q429.20-118.65 424.37-118.65L424.37-118.65Q420.41-114.48 414.59-109.20Q408.76-103.93 402.91-99.46L402.91-99.46L415.50-99.46L424.80-111.62Q424.80-111.62 427.73-109.31Q430.66-107.01 434.62-103.75Q438.57-100.49 441.72-97.63L441.72-97.63Q441.06-95.21 437.70-95.21L437.70-95.21L413.53-95.21L413.53-81.88L416.97-81.88L424.51-89.58L439.53-78.30Q438.43-76.68 435.42-76.03L435.42-76.03L435.42-67.24L438.72-72.88Q438.72-72.88 440.70-70.75Q442.68-68.63 445.24-65.70Q447.80-62.77 449.71-60.28L449.71-60.28Q449.27-57.93 445.97-57.93L445.97-57.93L435.42-57.93L435.42-38.96Q435.35-38.38 433.01-37.32Q430.66-36.25 427.37-35.38Q424.07-34.50 421.22-34.50L421.22-34.50L418.21-34.50L418.21-37.35L414.62-37.35Q419.90-28.27 428.72-21.68Q437.55-15.09 447.00-11.72L447.00-11.72L446.70-10.03Q435.64-7.10 431.54 8.86L431.54 8.86Q424.80 2.34 420.52-6.70Q416.24-15.75 413.53-27.32L413.53-27.32L413.53 9.59Q413.53 10.40 409.61 12.41Q405.69 14.43 398.73 14.43L398.73 14.43L395.43 14.43L395.43-37.35L390.60-37.35L390.60 9.59Q390.45 10.40 386.61 12.41Q382.76 14.43 376.03 14.43L376.03 14.43L372.73 14.43L372.73-8.13Q363.72 1.83 351.12 9.45L351.12 9.45L349.80 7.47L352.81 3.59Q351.12 4.83 346.69 6.41Q342.26 7.98 338.38 7.98L338.38 7.98L335.08 7.98L335.08-0.88L327.03-0.88L327.03 8.57Q327.03 9.38 324.72 10.73Q322.41 12.08 318.82 13.18Q315.23 14.28 311.43 14.28L311.43 14.28L308.72 14.28ZM413.53-62.11L418.21-62.11L418.21-77.71L413.53-77.71L413.53-62.11ZM395.43-57.93L390.60-57.93L390.60-41.53L395.43-41.53L395.43-57.93ZM390.60-77.71L390.60-62.11L395.43-62.11L395.43-77.71L390.60-77.71ZM395.43-95.21L390.60-95.21L390.60-81.88L395.43-81.88L395.43-95.21ZM335.08-5.13L335.08-33.33L327.03-33.33L327.03-5.13L335.08-5.13Z"/>
    </svg>
        