<svg width="223" height="223" version="1.1" xmlns="http://www.w3.org/2000/svg" xmlns:xlink="http://www.w3.org/1999/xlink"><path d="M159.00 56.05L159.00 56.05Q159.00 59.39 157.22 60.73L157.22 60.73Q144.95 63.85 108.82 69.20L108.82 69.20L107.26 96.86L126.89 93.07Q137.81 91.73 144.73 97.97L144.73 97.97Q147.63 101.09 147.63 103.10L147.63 103.10L144.95 104.88Q115.07 104.88 93.44 108.01L93.44 108.01L70.69 112.47L70.25 112.47Q65.78 112.91 61.99 110.24L61.99 110.24Q59.54 108.68 58.43 106.45L58.43 106.45Q58.43 105.55 60.88 104.88L60.88 104.88L97.23 99.09L97.67 70.77Q94.33 70.77 76.04 73.66L76.04 73.66Q56.87 76.79 47.95 69.87L47.95 69.87L45.49 67.87Q45.49 65.64 47.50 65.19L47.50 65.19Q49.06 64.97 61.10 64.52L61.10 64.52Q62.44 64.52 63.55 64.30L63.55 64.30Q80.50 62.96 96.56 60.51L96.56 60.51L96.34 36.65Q95.89 32.41 95.22 29.06L95.22 29.06Q95.00 28.40 91.21 22.60L91.21 22.60Q87.64 17.02 91.65 14.57L91.65 14.57Q101.69 14.57 109.49 19.70L109.49 19.70Q111.72 21.26 113.06 23.04L113.06 23.04L110.61 39.99L109.27 57.83Q115.51 58.05 130.01 53.59L130.01 53.59Q144.95 48.91 152.98 52.48L152.98 52.48Q156.10 53.82 159.00 56.05ZM148.07 118.71L148.07 118.71L148.74 118.04L169.93 122.95Q187.99 128.52 191.56 142.79L191.56 142.79Q192.45 146.59 191.56 148.82L191.56 148.82L190.22 150.60L188.66 151.27Q186.43 151.71 182.41 148.59L182.41 148.59Q181.75 148.15 181.08 147.48L181.08 147.48Q165.24 134.77 160.34 130.98L160.34 130.98Q151.42 125.18 151.19 124.95L151.19 124.95Q150.53 124.29 150.08 123.84L150.08 123.84Q148.07 121.83 148.07 118.71ZM113.28 145.92L113.28 145.92Q105.03 144.80 95.89 133.65L95.89 133.65Q95.44 132.98 94.33 131.42L94.33 131.42L90.76 127.18L90.76 126.96L90.31 122.95Q91.43 122.50 96.56 122.50L96.56 122.50Q109.27 127.41 112.61 130.31L112.61 130.31Q118.64 135.21 117.08 142.13L117.08 142.13Q116.63 143.69 113.28 145.92ZM55.75 133.65L55.75 133.65Q57.53 132.54 59.99 133.43L59.99 133.43Q60.88 133.65 61.55 134.32L61.55 134.32Q63.78 135.88 66.68 145.25L66.68 145.25Q67.57 148.37 68.24 149.71L68.24 149.71Q80.73 172.68 117.52 176.47L117.52 176.47Q124.43 177.14 133.80 177.36L133.80 177.36Q144.06 177.81 146.29 174.24L146.29 174.24L141.16 151.27L142.72 151.05Q156.32 164.43 167.25 172.23L167.25 172.23L176.84 178.70Q178.18 179.59 178.18 181.37L178.18 181.37Q178.18 183.38 176.84 184.27L176.84 184.27Q169.26 191.19 147.18 192.30L147.18 192.30Q142.05 192.52 138.48 192.08L138.48 192.08L123.54 190.07L123.32 190.07Q95.89 186.50 83.18 179.37L83.18 179.37Q73.81 174.01 67.12 165.32L67.12 165.32Q56.42 151.71 55.75 133.65ZM21.85 172.45L21.85 172.45Q16.06 163.76 23.86 150.82L23.86 150.82L31.00 138.78L31.00 138.56L36.80 126.07Q38.58 123.17 39.69 123.17L39.69 123.17Q41.70 123.17 42.59 125.40L42.59 125.40Q45.72 133.87 40.36 150.38L40.36 150.38Q34.34 168.89 24.75 172.01L24.75 172.01Q23.41 172.45 21.85 172.45Z" stroke="#000" fill="black" /></svg>