<svg width="223" height="223" version="1.1" xmlns="http://www.w3.org/2000/svg" xmlns:xlink="http://www.w3.org/1999/xlink"><path d="M192.23 161.06L192.23 161.06Q191.33 173.77 157.88 173.99L157.88 173.99Q138.71 173.99 128.00 168.19L128.00 168.19Q114.62 160.83 114.40 138.98L114.40 138.98L115.51 116.46L115.74 105.75L115.74 105.53Q115.74 98.17 111.72 88.58L111.72 88.58Q111.72 86.57 113.51 85.68L113.51 85.68Q119.08 86.13 128.00 93.71L128.00 93.71Q128.89 94.38 129.34 94.83L129.34 94.83Q130.46 97.95 127.56 105.31L127.56 105.31Q126.89 107.54 126.44 108.87L126.44 108.87Q122.87 125.82 124.43 142.32L124.43 142.32Q124.88 148.57 126.22 153.92L126.22 153.92Q132.91 162.84 153.20 162.39L153.20 162.39Q163.91 162.17 170.82 159.27L170.82 159.27Q176.62 156.82 179.74 140.32L179.74 140.32Q181.52 129.39 182.41 126.94L182.41 126.94Q183.97 126.94 185.31 129.39L185.31 129.39Q187.54 150.35 192.23 161.06ZM173.49 60.04L173.49 60.04Q173.05 62.27 169.70 63.16L169.70 63.16Q149.63 70.07 139.82 76.09L139.82 76.09L136.70 76.09Q136.92 73.42 147.40 56.02L147.40 56.02Q147.40 54.02 146.06 53.57L146.06 53.57Q143.17 52.68 115.29 58.48L115.29 58.48Q107.04 99.06 97.67 117.79L97.67 117.79Q82.73 147.01 49.73 163.73L49.73 163.73L42.37 163.96L42.37 162.84Q89.65 128.28 98.34 84.34L98.34 84.34L102.80 61.82Q101.24 62.04 91.43 65.17L91.43 65.17Q83.85 67.40 79.39 64.72L79.39 64.72L71.58 86.80L69.13 91.48Q67.79 93.04 66.01 92.37L66.01 92.37Q65.34 92.15 64.67 91.70L64.67 91.70Q58.43 81.67 62.44 74.09L62.44 74.09L68.46 64.05Q70.69 58.70 70.69 52.46L70.69 52.46L71.81 51.79L74.04 52.46Q78.27 56.25 79.61 59.37L79.61 59.37L103.25 54.69L104.14 53.57Q105.92 32.61 105.92 28.82L105.92 28.82Q105.70 18.34 101.69 10.53L101.69 10.53Q101.24 5.40 110.39 9.19L110.39 9.19Q119.31 12.76 121.53 16.78L121.53 16.78Q121.76 17.44 121.76 17.89L121.76 17.89Q121.76 18.56 119.97 25.47L119.97 25.47Q119.97 26.14 119.75 26.81L119.75 26.81L115.74 51.79L143.61 46.43Q149.63 45.54 154.99 45.54L154.99 45.54Q162.34 49.33 173.49 60.04ZM57.98 52.90L57.98 52.90Q55.30 57.14 49.73 54.69L49.73 54.69L47.95 53.79L31.67 32.39Q30.33 30.38 30.33 29.71Q30.33 29.04 31.44 25.70L31.44 25.70Q44.38 27.93 54.41 35.51L54.41 35.51Q59.32 39.30 58.43 49.11L58.43 49.11Q58.43 50.89 57.98 52.90ZM41.48 82.34L41.48 82.34Q41.48 89.25 39.25 90.59L39.25 90.59L35.68 91.48L34.56 91.48Q23.41 85.24 12.93 70.30L12.93 70.30Q12.93 66.28 14.94 66.06L14.94 66.06Q16.73 66.06 20.07 67.17L20.07 67.17Q36.80 71.63 41.48 82.34ZM53.07 93.71L54.19 94.83L34.34 155.26Q34.34 155.48 32.11 166.85L32.11 166.85L32.11 167.75Q31.44 168.19 30.33 168.19L30.33 168.19Q23.19 168.19 18.51 153.25L18.51 153.25Q16.95 148.35 16.73 144.78L16.73 144.78Q23.64 140.76 37.46 117.57L37.46 117.57Q48.84 98.39 53.07 93.71L53.07 93.71Z" stroke="#000" fill="black" /></svg>