<svg width="223" height="223" version="1.1" xmlns="http://www.w3.org/2000/svg" xmlns:xlink="http://www.w3.org/1999/xlink"><path d="M161.68 32.34L161.68 32.34Q161.23 33.45 131.35 58.43L131.35 58.43Q129.34 58.43 129.12 57.31L129.12 57.31L141.16 35.68Q142.72 32.56 142.72 30.77L142.72 30.77L142.50 24.31Q142.94 22.75 144.28 22.08L144.28 22.08Q154.76 22.08 160.78 30.77L160.78 30.77Q161.23 31.67 161.68 32.34ZM111.28 57.31L108.60 57.76Q103.03 53.30 98.12 44.82L98.12 44.82Q94.11 38.13 96.11 35.23L96.11 35.23Q105.92 35.68 112.17 44.82L112.17 44.82Q117.30 52.41 113.73 56.20L113.73 56.20L111.28 57.31ZM74.04 44.15L74.04 44.15L75.15 52.18Q74.93 54.41 72.25 55.08L72.25 55.08L69.58 55.30Q64.89 52.63 52.41 41.70L52.41 41.70L49.06 38.80Q46.83 36.57 47.50 34.56L47.50 34.56Q47.50 34.12 47.72 33.67L47.72 33.67Q55.97 33.45 63.78 36.57L63.78 36.57Q71.14 39.47 74.04 44.15ZM199.59 179.74L201.37 181.30L199.59 182.86Q183.31 185.31 171.49 184.64L171.49 184.64Q170.15 184.42 168.59 184.42L168.59 184.42Q159.89 179.29 135.14 144.06L135.14 144.06Q134.91 153.87 136.70 191.33L136.70 191.33Q137.15 198.92 137.37 204.94L137.37 204.94Q137.37 214.53 132.02 214.75L132.02 214.75Q122.43 203.38 122.43 196.24L122.43 196.24Q122.43 194.01 124.88 179.29L124.88 179.29Q125.10 178.62 125.10 177.95L125.10 177.95Q126.00 169.93 126.44 137.59L126.44 137.59Q115.96 138.71 108.60 140.49L108.60 140.49Q107.26 145.84 107.49 174.61L107.49 174.61Q107.93 205.16 102.58 210.51L102.58 210.51Q99.46 210.51 97.00 204.94L97.00 204.94Q94.11 198.92 97.90 179.29L97.90 179.29Q101.69 161.68 100.80 155.21L100.80 155.21Q82.06 181.75 65.56 190.22L65.56 190.22Q58.43 194.01 56.42 191.78L56.42 191.78Q56.87 191.11 66.23 182.86L66.23 182.86Q88.53 163.01 97.23 143.17L97.23 143.17L88.75 143.83L88.53 143.83Q84.29 143.83 83.18 140.49L83.18 140.49Q82.29 138.04 85.41 137.59L85.41 137.59L101.24 135.36Q101.47 135.14 101.69 135.14L101.69 135.14L102.36 134.69L102.36 121.98L85.86 125.99Q77.16 127.11 73.37 120.64L73.37 120.64L74.70 119.53L102.36 115.07L102.36 101.91L92.10 103.69Q90.54 103.69 88.98 103.25L88.98 103.25Q83.85 101.69 83.63 98.79L83.63 98.79L84.07 98.12L98.79 95.22Q100.35 94.77 101.69 94.33L101.69 94.33L97.23 79.16Q86.52 79.16 83.63 75.82L83.63 75.82L83.63 74.48L153.65 57.31Q157.88 56.20 163.01 58.43L163.01 58.43Q166.58 60.21 167.70 63.11L167.70 63.11L165.91 64.45Q144.95 68.02 127.56 72.47L127.56 72.47Q130.01 73.59 134.47 77.16L134.47 77.16L134.47 86.52Q144.73 84.52 152.98 81.17L152.98 81.17Q159.89 82.73 167.25 87.86L167.25 87.86Q168.81 88.75 169.48 89.65L169.48 89.65Q172.38 92.77 167.47 98.34L167.47 98.34Q164.35 102.13 163.91 103.69L163.91 103.69L181.52 101.46Q192.23 101.46 197.80 108.16L197.80 108.16Q197.80 110.61 194.90 111.50L194.90 111.50Q191.11 112.39 169.93 112.61L169.93 112.61Q164.35 112.84 161.01 113.28L161.01 113.28Q157.66 123.99 157.44 125.77L157.44 125.77L161.90 129.56Q162.57 130.45 162.57 131.57L162.57 131.57L160.56 133.13Q141.16 135.14 134.69 136.70L134.69 136.70Q163.24 166.13 199.59 179.74L199.59 179.74ZM152.09 94.55L152.09 94.55L150.97 92.32Q146.73 92.32 134.47 94.33L134.47 94.33L134.47 109.94L151.19 106.37Q152.09 98.12 152.09 94.55ZM109.94 92.32L125.10 88.75Q124.88 80.28 120.64 74.04L120.64 74.04Q119.31 74.26 105.26 77.60L105.26 77.60L108.38 79.83Q111.05 82.51 110.16 89.42L110.16 89.42L109.94 92.32ZM147.40 124.21L149.63 114.40L134.47 116.41L134.47 127.78L146.06 125.10L147.40 124.21ZM126.22 111.28L126.22 111.28L125.55 95.89L111.05 99.23L109.72 99.68L109.72 113.73Q113.73 112.61 126.22 111.28ZM109.05 133.80L126.44 130.01L126.22 117.52L110.39 120.64L109.05 121.53L109.05 133.80ZM81.84 69.58L81.84 69.58Q81.84 72.47 73.37 73.81L73.37 73.81Q54.86 78.05 53.52 78.27L53.52 78.27L22.30 87.86Q18.29 88.75 16.50 88.75L16.50 88.75Q8.70 88.75 3.79 83.18L3.79 83.18Q3.57 79.16 13.16 78.50L13.16 78.50Q15.83 78.27 16.73 78.05L16.73 78.05Q20.96 77.38 39.02 73.14L39.02 73.14L63.11 66.23Q66.68 65.56 69.58 65.34L69.58 65.34Q73.14 64.89 76.94 66.01L76.94 66.01Q80.50 67.35 81.84 69.58ZM70.25 94.33L70.25 94.33L69.80 95.67Q55.30 102.58 42.59 102.80L42.59 102.80L36.80 102.13L33.90 100.80Q33.90 99.68 37.02 98.34L37.02 98.34Q40.59 98.12 53.97 93.66L53.97 93.66Q61.33 91.43 66.23 91.43L66.23 91.43L69.80 93.66Q70.02 93.88 70.25 94.33ZM69.35 116.41L70.25 117.52Q69.35 121.31 49.73 124.21L49.73 124.21Q45.72 124.88 44.15 124.88L44.15 124.88Q40.36 124.88 36.13 123.77L36.13 123.77L35.46 122.20Q37.02 121.09 47.05 118.41L47.05 118.41Q49.28 117.74 51.07 117.08L51.07 117.08Q64.22 111.28 69.35 116.41L69.35 116.41ZM71.58 141.83L71.58 141.83Q71.58 144.95 67.35 151.42L67.35 151.42Q65.56 154.32 65.12 156.32L65.12 156.32L63.33 163.68L67.57 166.58Q68.24 167.25 68.24 168.14L68.24 168.14L66.45 169.48L46.38 173.49Q41.70 174.83 37.69 176.84L37.69 176.84Q37.24 183.31 37.02 184.20L37.02 184.20Q33.67 183.75 30.77 178.40L30.77 178.40Q29.88 176.84 29.44 176.17L29.44 176.17Q26.76 161.01 18.96 146.29L18.96 146.29Q18.96 144.95 20.29 144.06L20.29 144.06Q25.87 144.50 30.77 146.06L30.77 146.06Q47.05 140.71 55.53 134.91L55.53 134.91Q64.67 136.25 71.58 141.83ZM56.64 146.29L56.64 146.29Q55.08 142.94 35.46 149.86L35.46 149.86L33.45 150.75Q33.90 153.87 37.24 169.48L37.24 169.48L53.30 163.68Q55.97 153.20 56.64 146.29Z" stroke="#000" fill="black" /></svg>